<svg xmlns="http://www.w3.org/2000/svg" viewBox="0 0 512 512">
  <defs>
    <linearGradient id="grad" x1="0%" y1="0%" x2="100%" y2="100%">
      <stop offset="0%" style="stop-color:#4f46e5;stop-opacity:1" />
      <stop offset="100%" style="stop-color:#4338ca;stop-opacity:1" />
    </linearGradient>
  </defs>
  
  <!-- Background Squircle -->
  <rect x="0" y="0" width="512" height="512" rx="128" fill="url(#grad)" />
  
  <!-- Chain Icon (White) -->
  <g transform="translate(106, 106) scale(1.2)">
    <path d="M156.4,72.6c-23.7-23.7-62.2-23.7-85.9,0l-26.5,26.5c-23.7,23.7-23.7,62.2,0,85.9l46.4,46.4c5.1,5.1,13.4,5.1,18.6,0
      c5.1-5.1,5.1-13.4,0-18.6l-46.4-46.4c-13.5-13.5-13.5-35.3,0-48.8l26.5-26.5c13.5-13.5,35.3-13.5,48.8,0l45.9,45.9
      c13.5,13.5,13.5,35.3,0,48.8l-15.4,15.4c-5.1,5.1-5.1,13.4,0,18.6c2.6,2.6,5.9,3.9,9.3,3.9s6.7-1.3,9.3-3.9l15.4-15.4
      c23.7-23.7,23.7-62.2,0-85.9L156.4,72.6z" fill="#ffffff"/>
    <path d="M228.6,152.1l-46.4-46.4c-5.1-5.1-13.4-5.1-18.6,0c-5.1,5.1-5.1,13.4,0,18.6l46.4,46.4c13.5,13.5,13.5,35.3,0,48.8
      l-26.5,26.5c-13.5,13.5-35.3,13.5-48.8,0l-45.9-45.9c-13.5-13.5-13.5-35.3,0-48.8l15.4-15.4c5.1-5.1,5.1-13.4,0-18.6
      c-5.1-5.1-13.4-5.1-18.6,0l-15.4,15.4c-23.7,23.7-23.7,62.2,0,85.9l45.9,45.9c23.7,23.7,62.2,23.7,85.9,0l26.5-26.5
      c23.7-23.7,23.7-62.2,0-85.9L228.6,152.1z" fill="#ffffff"/>
  </g>
</svg>
