<svg width="512" height="512" viewBox="0 0 512 512" xmlns="http://www.w3.org/2000/svg">
  <defs>
    <path id="link-shape" fill-rule="evenodd"
          d="M-45,-80 L-45,80 A45,45 0 0,0 45,80 L45,-80 A45,45 0 0,0 -45,-80 Z 
             M-18,-80 A18,18 0 0,1 18,-80 L18,80 A18,18 0 0,1 -18,80 L-18,-80 Z" />
    
    <path id="link-highlight" fill="none" stroke="white" stroke-width="8" stroke-linecap="round" stroke-dasharray="20, 25" stroke-opacity="0.6"
          d="M0,-80 L0,80 A1,1 0 0,0 0,81" transform="scale(0.85, 0.9)"/>
  </defs>

  <g transform="translate(256, 256) rotate(-45)">
    
    <g>
      <use href="#link-shape" fill="#FFC107" stroke="black" stroke-width="12" />
      <use href="#link-highlight" />
    </g>

    <g transform="translate(0, -95)">
      <use href="#link-shape" fill="#2196F3" stroke="black" stroke-width="12" />
      <use href="#link-highlight" />
    </g>

    <g transform="translate(0, 95)">
      <use href="#link-shape" fill="#00E676" stroke="black" stroke-width="12" />
      <use href="#link-highlight" />
    </g>

  </g>
</svg>
